# xmcd
#
# Track frame offsets:
#	182
#	20737
#	42347
#	62172
#	87732
#	110085
#	123505
#	142255
#	159540
#	178925
#	201292
#	244270
#	273527
#
# Disc length: 4254 seconds
#
# Revision: 2
# Processed by: cddbd v1.5.2PL0 Copyright (c) Steve Scherf et al.
# Submitted via: audiograbber 1.83.01
#
DISCID=d3109c0d
DTITLE=Sunset Heights - Texas Tea
DYEAR=1994
DGENRE=Blues-Rock
TTITLE0=Man Of The World
TTITLE1=Movin' On
TTITLE2=Dangerous Moves
TTITLE3=Runnin' Blind
TTITLE4=Missing You
TTITLE5=Only Time Will Tell
TTITLE6=Sally Jo
TTITLE7=Save Yourself
TTITLE8=Different Colored Dancer
TTITLE9=Politician
TTITLE10=Dreamin' Girl (Pt. 1)
TTITLE11=She Left Me
TTITLE12=Whiskey Woman
EXTD=
EXTT0=
EXTT1=
EXTT2=
EXTT3=
EXTT4=
EXTT5=
EXTT6=
EXTT7=
EXTT8=
EXTT9=
EXTT10=
EXTT11=
EXTT12=
PLAYORDER=
